<?xml version="1.0" standalone="no"?>
<!DOCTYPE svg PUBLIC "-//W3C//DTD SVG 20010904//EN"
 "http://www.w3.org/TR/2001/REC-SVG-20010904/DTD/svg10.dtd">
<svg version="1.0" xmlns="http://www.w3.org/2000/svg"
 width="722.000000pt" height="725.000000pt" viewBox="0 0 722.000000 725.000000"
 preserveAspectRatio="xMidYMid meet">

<g transform="translate(0.000000,725.000000) scale(0.100000,-0.100000)"
fill="#000000" stroke="none">
<path d="M1590 7234 c-248 -23 -413 -58 -567 -120 -564 -226 -927 -710 -1003
-1334 -14 -119 -14 -4176 1 -4308 38 -347 162 -637 383 -891 210 -242 515
-422 869 -511 225 -57 151 -55 2357 -55 2246 0 2094 -4 2355 62 560 140 997
549 1158 1084 40 132 54 208 67 374 14 169 13 4023 -1 4180 -19 218 -66 396
-154 582 -133 280 -340 511 -610 681 -81 50 -259 131 -371 168 -143 47 -277
72 -440 84 -125 9 -3949 12 -4044 4z m2353 -669 c678 -73 1305 -364 1784 -828
283 -274 475 -543 645 -902 168 -356 268 -811 268 -1225 0 -103 -21 -369 -36
-460 -71 -430 -219 -813 -449 -1159 -232 -349 -545 -655 -895 -876 -361 -227
-772 -373 -1245 -442 -150 -21 -609 -24 -755 -5 -419 57 -850 200 -1155 383
-16 10 -48 28 -70 40 -89 49 -319 216 -410 299 -270 245 -409 409 -607 720
-55 86 -177 334 -220 450 -91 239 -134 404 -175 670 -25 164 -25 634 0 804 52
346 128 591 277 892 221 445 548 823 960 1111 433 301 973 496 1490 536 131
10 464 6 593 -8z"/>
<path d="M3765 5353 c11 -1985 15 -2917 15 -3604 0 -394 2 -718 5 -720 7 -8
207 10 295 26 453 84 822 243 1165 502 462 350 787 825 949 1388 73 255 107
589 87 839 -14 169 -21 216 -31 216 -4 0 -38 -26 -76 -57 -98 -80 -262 -185
-456 -292 l-168 -92 -32 17 c-18 10 -141 65 -273 124 -132 59 -366 164 -520
232 -384 172 -596 269 -755 347 -118 57 -131 66 -104 69 18 2 173 -15 345 -38
339 -45 456 -59 734 -90 99 -11 199 -22 222 -25 l41 -4 6 92 c13 213 15 475 5
565 -25 225 -111 397 -278 554 -87 83 -142 120 -238 164 -109 50 -219 74 -336
74 -169 0 -312 -47 -446 -145 -33 -25 -63 -45 -66 -45 -3 0 -5 101 -5 224 0
182 3 227 14 239 19 19 163 64 246 77 97 15 315 12 416 -5 189 -33 418 -135
562 -251 203 -162 360 -391 442 -644 51 -160 55 -198 55 -577 l-1 -353 33 -6
c18 -3 83 -4 145 -2 86 4 127 10 170 27 74 29 159 106 193 175 l26 53 -40 117
c-259 758 -855 1349 -1625 1615 -256 88 -465 131 -640 131 l-87 0 6 -917z
m1032 -1808 c69 -21 133 -72 168 -136 23 -44 30 -69 33 -135 3 -49 -1 -97 -8
-120 -25 -79 -83 -149 -158 -193 -9 -6 -6 -37 17 -142 66 -299 100 -473 95
-478 -5 -5 -475 -2 -481 3 -2 2 61 320 91 459 14 65 26 126 26 136 0 9 -14 25
-30 35 -43 25 -99 84 -123 131 -15 28 -22 65 -25 127 -4 76 -1 92 20 140 42
92 108 151 198 179 42 12 124 10 177 -6z"/>
<path d="M2970 6174 c-395 -73 -1026 -418 -1078 -590 -45 -152 21 -357 163
-500 125 -127 242 -178 485 -213 152 -22 237 -45 321 -85 l50 -24 11 27 c7 14
12 86 12 161 0 119 -3 144 -26 212 -51 153 -145 256 -278 307 -41 16 -95 32
-120 36 -143 21 -152 57 -28 122 47 24 64 27 148 28 84 0 102 -3 155 -28 84
-40 156 -97 218 -174 135 -167 187 -366 167 -630 -14 -174 -67 -347 -115 -373
-33 -18 -64 -7 -127 45 -116 96 -230 133 -552 180 -212 32 -355 103 -502 249
-137 137 -209 273 -221 418 -3 37 -9 68 -13 68 -14 0 -144 -160 -209 -258 -38
-56 -98 -159 -133 -228 -60 -120 -63 -129 -62 -194 6 -262 209 -474 519 -542
30 -7 181 -12 380 -13 284 -1 340 -3 405 -19 167 -41 296 -108 401 -208 91
-87 148 -168 230 -328 79 -154 121 -211 182 -241 48 -25 109 -21 138 8 18 18
18 60 9 1248 -10 1327 -7 1273 -63 1367 -36 62 -100 121 -165 153 -70 35 -179
41 -302 19z"/>
<path d="M1047 4243 c-49 -234 -61 -337 -61 -543 0 -188 1 -198 27 -274 33
-93 70 -150 133 -203 156 -134 383 -158 636 -68 78 28 212 94 285 141 85 54
227 124 264 130 33 5 101 -16 113 -34 11 -18 -67 -129 -136 -195 -165 -156
-382 -265 -633 -318 -33 -8 -121 -13 -195 -13 -154 0 -224 15 -334 70 l-69 35
6 -34 c9 -57 116 -325 178 -448 73 -144 150 -267 241 -386 79 -103 74 -102
183 -62 109 40 176 120 277 329 67 137 136 232 223 303 75 62 221 147 355 206
234 104 417 216 494 301 54 60 54 76 2 162 -25 42 -58 102 -73 134 -76 168
-204 321 -318 381 -33 18 -101 44 -150 59 -89 26 -95 26 -415 29 -340 2 -404
8 -548 55 -172 54 -369 206 -427 328 -11 23 -23 42 -26 42 -3 0 -18 -57 -32
-127z"/>
<path d="M3226 3013 c-176 -149 -262 -203 -533 -333 -345 -167 -394 -210 -506
-440 -117 -242 -209 -355 -346 -422 l-63 -32 48 -43 c173 -155 415 -332 522
-381 109 -50 218 -27 278 59 47 68 56 118 63 359 7 210 9 229 33 287 65 155
174 254 373 338 203 85 322 172 380 277 27 48 30 61 30 149 0 89 -2 99 -30
144 -39 63 -73 87 -132 92 -46 4 -50 3 -117 -54z"/>
<path d="M3470 2331 c-47 -38 -126 -81 -239 -131 -174 -76 -247 -140 -276
-244 -9 -33 -15 -124 -18 -251 -4 -183 -7 -206 -31 -273 -33 -97 -55 -129
-127 -196 l-60 -55 33 -14 c60 -25 262 -86 325 -98 35 -6 100 -9 145 -7 102 6
169 36 225 103 74 89 72 69 72 650 1 286 -3 526 -7 532 -6 9 -17 5 -42 -16z"/>
</g>
</svg>
